<svg xmlns="http://www.w3.org/2000/svg" viewBox="0 0 353.23 202.34">
  <defs>
    <style>
      .\39 9e48c7a-fb0f-414a-8d9a-a307c982ff95 {
        fill: #fefefe;
      }

      .b621fd8b-baae-48f4-86ec-046b22f05c33 {
        fill: #fff;
      }
    </style>
  </defs>
  <title>logo</title>
  <g id="d29bf97f-53c5-4858-be49-21a4a4d10bb5" data-name="Capa 2">
    <g id="10163735-e41b-4078-b6c1-b959356d5822" data-name="Capa 1">
      <g>
        <g>
          <path class="99e48c7a-fb0f-414a-8d9a-a307c982ff95" d="M55.85,61.32H42.67V48.14q0-2.64-2.22-2.64c-1.51,0-2.27.88-2.27,2.64V81c0,1.82.76,2.73,2.27,2.73s2.22-.91,2.22-2.73V68H55.85V81.11Q55.85,92,40.63,92,25,92,25,80.65V48.51q0-11.34,15.63-11.33,15.23,0,15.22,10.86Z"/>
          <path class="99e48c7a-fb0f-414a-8d9a-a307c982ff95" d="M90.08,91.24H76.9V89.43Q74.35,92,68.74,92A11.24,11.24,0,0,1,62,89.92a6.35,6.35,0,0,1-2.85-5.39v-47H72.32V81.2c0,1.64.77,2.45,2.31,2.45s2.27-.78,2.27-2.36V37.55H90.08Z"/>
          <path class="99e48c7a-fb0f-414a-8d9a-a307c982ff95" d="M106.37,34.59H93.19V24.92h13.18Zm0,56.65H93.19V37.55h13.18Z"/>
          <path class="99e48c7a-fb0f-414a-8d9a-a307c982ff95" d="M140.46,91.24h-10l-1.11-1.81a12.46,12.46,0,0,1-7.7,2.55,15.21,15.21,0,0,1-8.6-2.36,7.35,7.35,0,0,1-3.54-6.43V44.62a6.34,6.34,0,0,1,2.8-5.43,11.34,11.34,0,0,1,6.79-2q5.47,0,8.16,2V24.92h13.18Zm-13.18-10V47.86c0-1.57-.75-2.36-2.26-2.36s-2.32.82-2.32,2.45V81.2c0,1.64.78,2.45,2.32,2.45S127.28,82.84,127.28,81.2Z"/>
          <path class="99e48c7a-fb0f-414a-8d9a-a307c982ff95" d="M174.88,91.24H163.23V89.16Q161.75,92,154.76,92,144,92,144,83.56V72.78a8.7,8.7,0,0,1,2.61-6.28q2.61-2.69,10.52-6.71,4.57-2.31,4.58-3.7v-8c0-1.76-.75-2.64-2.27-2.64-1.72,0-2.58,2.15-2.58,6.43,0,.77,0,1.91.13,3.42s.19,2.65.19,3.42H144.45V48q0-10.86,15.72-10.86,14.72,0,14.71,11.33Zm-13.18-10V67.37c-3,.75-4.53,2.1-4.53,4.07V81.2c0,1.64.79,2.45,2.36,2.45S161.7,82.84,161.7,81.2Z"/>
          <path class="99e48c7a-fb0f-414a-8d9a-a307c982ff95" d="M209.3,91.24h-10l-1.11-1.81a12.48,12.48,0,0,1-7.7,2.55,15.18,15.18,0,0,1-8.6-2.36,7.34,7.34,0,0,1-3.55-6.43V44.62a6.32,6.32,0,0,1,2.81-5.43,11.34,11.34,0,0,1,6.79-2q5.47,0,8.16,2V24.92H209.3Zm-13.18-10V47.86c0-1.57-.76-2.36-2.27-2.36s-2.31.82-2.31,2.45V81.2c0,1.64.77,2.45,2.31,2.45S196.12,82.84,196.12,81.2Z"/>
          <path class="99e48c7a-fb0f-414a-8d9a-a307c982ff95" d="M212.36,80.65V48.51q0-11.34,15.68-11.33a21,21,0,0,1,10.66,2.63A8.84,8.84,0,0,1,243.3,48V81.11Q243.3,92,228,92,212.37,92,212.36,80.65Zm17.76.37V48.14c0-1.76-.76-2.64-2.27-2.64s-2.31.88-2.31,2.64V81q0,2.73,2.31,2.73C229.36,83.75,230.12,82.84,230.12,81Z"/>
          <path class="99e48c7a-fb0f-414a-8d9a-a307c982ff95" d="M276.64,73.06h-8v-8c0-1.07-.45-1.6-1.35-1.6s-1.38.53-1.38,1.6V85c0,1.1.46,1.66,1.38,1.66s1.35-.56,1.35-1.66v-7.9h8v8q0,6.61-9.25,6.61-9.5,0-9.5-6.89V65.27q0-6.88,9.5-6.88,9.25,0,9.25,6.6Z"/>
          <path class="99e48c7a-fb0f-414a-8d9a-a307c982ff95" d="M278.53,84.8V65.27q0-6.88,9.52-6.88a12.76,12.76,0,0,1,6.48,1.6,5.38,5.38,0,0,1,2.8,5V85.08q0,6.61-9.28,6.61Q278.52,91.69,278.53,84.8Zm10.79.23v-20c0-1.07-.46-1.6-1.38-1.6s-1.4.53-1.4,1.6V85c0,1.1.46,1.66,1.4,1.66S289.32,86.13,289.32,85Z"/>
          <path class="99e48c7a-fb0f-414a-8d9a-a307c982ff95" d="M318,91.24h-8V65.05c0-1-.46-1.49-1.39-1.49A1.25,1.25,0,0,0,307.2,65V91.24h-8V58.61h8v1.1a7.71,7.71,0,0,1,4.95-1.32,7.18,7.18,0,0,1,4,1.18A3.85,3.85,0,0,1,318,63Z"/>
          <path class="99e48c7a-fb0f-414a-8d9a-a307c982ff95" d="M64.45,146.47H53.72v7.62q0,1.65,1.38,1.65t1.35-1.65v-6.58h8v6.63q0,6.62-9.41,6.61t-9.33-6.89V134.33q0-6.89,9.33-6.88t9.41,6.6Zm-8-4.89v-7.47c0-1.07-.45-1.6-1.35-1.6s-1.38.53-1.38,1.6v7.47Z"/>
          <path class="99e48c7a-fb0f-414a-8d9a-a307c982ff95" d="M74.61,160.3h-8V120h8Z"/>
          <path class="99e48c7a-fb0f-414a-8d9a-a307c982ff95" d="M100.93,159.05v12.62H87.75V106.61h10l1.11,2.17a12.09,12.09,0,0,1,7.7-2.54,16,16,0,0,1,8.32,2.26,7.18,7.18,0,0,1,3.83,6.52v38.57a6.38,6.38,0,0,1-2.78,5.41,11.14,11.14,0,0,1-6.77,2C105.46,161,102.72,160.37,100.93,159.05Zm4.58-8.79V117c0-1.63-.76-2.45-2.27-2.45s-2.31.82-2.31,2.45v33.34a2.06,2.06,0,0,0,2.31,2.36C104.75,152.71,105.51,151.9,105.51,150.26Z"/>
          <path class="99e48c7a-fb0f-414a-8d9a-a307c982ff95" d="M152.88,137.54H135.21v12.54c0,1.82.76,2.72,2.27,2.72s2.22-.9,2.22-2.72V139.26h13.18v10.91q0,10.86-15.5,10.87Q122,161,122,149.71V117.57q0-11.34,15.35-11.33t15.5,10.86Zm-13.18-8V117.2q0-2.64-2.22-2.64c-1.51,0-2.27.88-2.27,2.64v12.3Z"/>
          <path class="99e48c7a-fb0f-414a-8d9a-a307c982ff95" d="M169.58,160.3H156.4V94h13.18Z"/>
          <path class="99e48c7a-fb0f-414a-8d9a-a307c982ff95" d="M203.91,160.3H190.73v-1.81q-2.55,2.55-8.16,2.55a11.24,11.24,0,0,1-6.75-2.06,6.35,6.35,0,0,1-2.85-5.39v-47h13.18v43.65c0,1.64.77,2.45,2.31,2.45s2.27-.78,2.27-2.36V106.61h13.18Z"/>
          <path class="99e48c7a-fb0f-414a-8d9a-a307c982ff95" d="M238.05,130.38H224.87V117.2q0-2.64-2.22-2.64c-1.51,0-2.27.88-2.27,2.64v32.88c0,1.82.76,2.72,2.27,2.72s2.22-.9,2.22-2.72v-13h13.18v13.09q0,10.86-15.22,10.87-15.63,0-15.63-11.33V117.57q0-11.34,15.63-11.33,15.21,0,15.22,10.86Z"/>
          <path class="99e48c7a-fb0f-414a-8d9a-a307c982ff95" d="M272.32,160.3H259.15V117c0-1.63-.75-2.45-2.22-2.45s-2.27.79-2.27,2.36V160.3H241.48V94h13.18v14.24q2.36-2,8.16-2a11.06,11.06,0,0,1,6.69,2,6.35,6.35,0,0,1,2.81,5.41Z"/>
          <path class="99e48c7a-fb0f-414a-8d9a-a307c982ff95" d="M306.65,137.54H289v12.54c0,1.82.76,2.72,2.27,2.72s2.22-.9,2.22-2.72V139.26h13.18v10.91q0,10.86-15.49,10.87T275.8,149.71V117.57q0-11.34,15.36-11.33t15.49,10.86Zm-13.18-8V117.2q0-2.64-2.22-2.64c-1.51,0-2.27.88-2.27,2.64v12.3Z"/>
        </g>
        <path class="b621fd8b-baae-48f4-86ec-046b22f05c33" d="M332.15,202.34H307.8v-4h24.13Zm-48.48,0H259.54v-4h24.13Zm-48.26,0H211.27v-4h24.14Zm-48.26,0H163v-4h24.13Zm-48.27,0H114.76v-4h24.12Zm-48.26,0H66.49v-4H90.62Zm-48.26,0H21.3a20.9,20.9,0,0,1-3.37-.27l.64-4a17.54,17.54,0,0,0,2.73.21H42.36Zm309.87-14.83-3.84-1.22a17.24,17.24,0,0,0,.81-5.25V162.86h4V181A21.43,21.43,0,0,1,352.23,187.51Zm-352-3.06A21.58,21.58,0,0,1,0,181V160H4v21a16.88,16.88,0,0,0,.22,2.77Zm353-45.72h-4V114.6h4ZM4,135.89H0V111.76H4Zm349.2-45.42h-4V66.34h4ZM4,87.63H0V63.5H4Zm349.2-45.42h-4V21.3a16.93,16.93,0,0,0-.24-2.87l4-.67a22.15,22.15,0,0,1,.29,3.54ZM4,39.37H0V21.3a21.27,21.27,0,0,1,1-6.59L4.87,16A17.19,17.19,0,0,0,4,21.3ZM334.57,4.23a17.64,17.64,0,0,0-2.64-.2H310.75V0h21.18a20.55,20.55,0,0,1,3.25.25ZM286.62,4H262.49V0h24.13ZM238.36,4H214.23V0h24.13ZM190.1,4H166V0H190.1ZM141.84,4H117.71V0h24.13ZM93.58,4H69.45V0H93.58ZM45.32,4h-24l-.11-4H45.32Z"/>
      </g>
    </g>
  </g>
</svg>
